<svg width="150" height="44" viewBox="0 0 150 44" fill="none" xmlns="http://www.w3.org/2000/svg">
<rect x="0.5" y="0.5" width="149" height="43" rx="4.5" fill="#222222" stroke="#A6A6A6"/>
<path d="M61.87 32.614C61.942 32.77 61.978 32.926 61.978 33.082C61.978 33.358 61.864 33.592 61.636 33.784C61.42 33.976 61.168 34.072 60.88 34.072C60.688 34.072 60.508 34.024 60.34 33.928C60.172 33.82 60.04 33.658 59.944 33.442L58.864 31.03H52.528L51.448 33.442C51.352 33.658 51.22 33.82 51.052 33.928C50.884 34.024 50.698 34.072 50.494 34.072C50.218 34.072 49.966 33.976 49.738 33.784C49.51 33.592 49.396 33.358 49.396 33.082C49.396 32.926 49.432 32.77 49.504 32.614L54.472 21.94C54.58 21.7 54.742 21.52 54.958 21.4C55.186 21.268 55.426 21.202 55.678 21.202C55.93 21.202 56.164 21.268 56.38 21.4C56.608 21.52 56.776 21.7 56.884 21.94L61.87 32.614ZM53.32 29.23H58.072L55.696 23.884L53.32 29.23ZM68.5874 24.982C69.3434 24.982 70.0154 25.174 70.6034 25.558C71.2034 25.942 71.6654 26.488 71.9894 27.196C72.3254 27.892 72.4934 28.696 72.4934 29.608C72.4934 30.52 72.3254 31.318 71.9894 32.002C71.6654 32.686 71.2094 33.214 70.6214 33.586C70.0334 33.958 69.3554 34.144 68.5874 34.144C67.9634 34.144 67.4054 34.012 66.9134 33.748C66.4214 33.484 66.0434 33.118 65.7794 32.65V36.322C65.7794 36.634 65.6774 36.88 65.4734 37.06C65.2694 37.24 64.9994 37.33 64.6634 37.33C64.3274 37.33 64.0514 37.234 63.8354 37.042C63.6314 36.85 63.5294 36.598 63.5294 36.286V26.08C63.5294 25.756 63.6254 25.498 63.8174 25.306C64.0214 25.114 64.2914 25.018 64.6274 25.018C64.9634 25.018 65.2334 25.114 65.4374 25.306C65.6414 25.498 65.7434 25.756 65.7434 26.08V26.53C66.0074 26.038 66.3854 25.66 66.8774 25.396C67.3814 25.12 67.9514 24.982 68.5874 24.982ZM67.9934 32.398C68.7014 32.398 69.2534 32.158 69.6494 31.678C70.0454 31.186 70.2434 30.496 70.2434 29.608C70.2434 28.696 70.0454 27.988 69.6494 27.484C69.2534 26.98 68.7014 26.728 67.9934 26.728C67.2734 26.728 66.7154 26.974 66.3194 27.466C65.9354 27.958 65.7434 28.66 65.7434 29.572C65.7434 30.472 65.9354 31.168 66.3194 31.66C66.7154 32.152 67.2734 32.398 67.9934 32.398ZM79.3979 24.982C80.1539 24.982 80.8259 25.174 81.4139 25.558C82.0139 25.942 82.4759 26.488 82.7999 27.196C83.1359 27.892 83.3039 28.696 83.3039 29.608C83.3039 30.52 83.1359 31.318 82.7999 32.002C82.4759 32.686 82.0199 33.214 81.4319 33.586C80.8439 33.958 80.1659 34.144 79.3979 34.144C78.7739 34.144 78.2159 34.012 77.7239 33.748C77.2319 33.484 76.8539 33.118 76.5899 32.65V36.322C76.5899 36.634 76.4879 36.88 76.2839 37.06C76.0799 37.24 75.8099 37.33 75.4739 37.33C75.1379 37.33 74.8619 37.234 74.6459 37.042C74.4419 36.85 74.3399 36.598 74.3399 36.286V26.08C74.3399 25.756 74.4359 25.498 74.6279 25.306C74.8319 25.114 75.1019 25.018 75.4379 25.018C75.7739 25.018 76.0439 25.114 76.2479 25.306C76.4519 25.498 76.5539 25.756 76.5539 26.08V26.53C76.8179 26.038 77.1959 25.66 77.6879 25.396C78.1919 25.12 78.7619 24.982 79.3979 24.982ZM78.8039 32.398C79.5119 32.398 80.0639 32.158 80.4599 31.678C80.8559 31.186 81.0539 30.496 81.0539 29.608C81.0539 28.696 80.8559 27.988 80.4599 27.484C80.0639 26.98 79.5119 26.728 78.8039 26.728C78.0839 26.728 77.5259 26.974 77.1299 27.466C76.7459 27.958 76.5539 28.66 76.5539 29.572C76.5539 30.472 76.7459 31.168 77.1299 31.66C77.5259 32.152 78.0839 32.398 78.8039 32.398ZM94.6272 34.162C93.7032 34.162 92.8272 34.042 91.9992 33.802C91.1832 33.55 90.5172 33.214 90.0012 32.794C89.7252 32.59 89.5872 32.302 89.5872 31.93C89.5872 31.678 89.6592 31.462 89.8032 31.282C89.9592 31.09 90.1392 30.994 90.3432 30.994C90.5592 30.994 90.8052 31.078 91.0812 31.246C91.5972 31.618 92.1372 31.888 92.7012 32.056C93.2652 32.224 93.8892 32.308 94.5732 32.308C95.4492 32.308 96.1212 32.158 96.5892 31.858C97.0572 31.546 97.2912 31.096 97.2912 30.508C97.2912 30.052 97.0692 29.704 96.6252 29.464C96.1932 29.212 95.4672 28.972 94.4472 28.744C93.3912 28.516 92.5332 28.252 91.8732 27.952C91.2132 27.652 90.7152 27.268 90.3792 26.8C90.0432 26.332 89.8752 25.738 89.8752 25.018C89.8752 24.274 90.0852 23.608 90.5052 23.02C90.9252 22.432 91.5072 21.976 92.2512 21.652C93.0072 21.316 93.8532 21.148 94.7892 21.148C96.5052 21.148 97.9032 21.604 98.9832 22.516C99.1392 22.648 99.2472 22.78 99.3072 22.912C99.3792 23.032 99.4152 23.188 99.4152 23.38C99.4152 23.632 99.3372 23.854 99.1812 24.046C99.0372 24.226 98.8632 24.316 98.6592 24.316C98.5392 24.316 98.4252 24.298 98.3172 24.262C98.2212 24.226 98.0892 24.16 97.9212 24.064C97.4292 23.704 96.9492 23.44 96.4812 23.272C96.0252 23.092 95.4612 23.002 94.7892 23.002C93.9732 23.002 93.3252 23.17 92.8452 23.506C92.3772 23.83 92.1432 24.286 92.1432 24.874C92.1432 25.366 92.3532 25.744 92.7732 26.008C93.1932 26.272 93.9072 26.518 94.9152 26.746C95.9832 26.986 96.8472 27.256 97.5072 27.556C98.1792 27.844 98.6892 28.216 99.0372 28.672C99.3972 29.128 99.5772 29.698 99.5772 30.382C99.5772 31.126 99.3672 31.786 98.9472 32.362C98.5392 32.926 97.9572 33.37 97.2012 33.694C96.4572 34.006 95.5992 34.162 94.6272 34.162ZM105.965 32.434C106.565 32.47 106.865 32.74 106.865 33.244C106.865 33.532 106.745 33.754 106.505 33.91C106.277 34.054 105.947 34.114 105.515 34.09L105.029 34.054C103.013 33.91 102.005 32.83 102.005 30.814V26.89H101.105C100.781 26.89 100.529 26.818 100.349 26.674C100.181 26.53 100.097 26.32 100.097 26.044C100.097 25.768 100.181 25.558 100.349 25.414C100.529 25.27 100.781 25.198 101.105 25.198H102.005V23.542C102.005 23.218 102.107 22.96 102.311 22.768C102.515 22.576 102.791 22.48 103.139 22.48C103.475 22.48 103.745 22.576 103.949 22.768C104.153 22.96 104.255 23.218 104.255 23.542V25.198H105.785C106.109 25.198 106.355 25.27 106.523 25.414C106.703 25.558 106.793 25.768 106.793 26.044C106.793 26.32 106.703 26.53 106.523 26.674C106.355 26.818 106.109 26.89 105.785 26.89H104.255V30.976C104.255 31.864 104.663 32.338 105.479 32.398L105.965 32.434ZM112.051 34.144C111.151 34.144 110.359 33.958 109.675 33.586C109.003 33.214 108.481 32.68 108.109 31.984C107.737 31.288 107.551 30.478 107.551 29.554C107.551 28.63 107.737 27.826 108.109 27.142C108.481 26.446 109.003 25.912 109.675 25.54C110.359 25.168 111.151 24.982 112.051 24.982C112.951 24.982 113.737 25.168 114.409 25.54C115.093 25.912 115.615 26.446 115.975 27.142C116.347 27.826 116.533 28.63 116.533 29.554C116.533 30.478 116.347 31.288 115.975 31.984C115.615 32.68 115.093 33.214 114.409 33.586C113.737 33.958 112.951 34.144 112.051 34.144ZM112.033 32.398C112.765 32.398 113.323 32.158 113.707 31.678C114.091 31.198 114.283 30.49 114.283 29.554C114.283 28.63 114.091 27.928 113.707 27.448C113.323 26.956 112.771 26.71 112.051 26.71C111.331 26.71 110.773 26.956 110.377 27.448C109.993 27.928 109.801 28.63 109.801 29.554C109.801 30.49 109.993 31.198 110.377 31.678C110.761 32.158 111.313 32.398 112.033 32.398ZM123.305 25.018C123.617 24.994 123.863 25.06 124.043 25.216C124.223 25.372 124.313 25.606 124.313 25.918C124.313 26.242 124.235 26.482 124.079 26.638C123.923 26.794 123.641 26.896 123.233 26.944L122.693 26.998C121.985 27.07 121.463 27.31 121.127 27.718C120.803 28.126 120.641 28.636 120.641 29.248V33.028C120.641 33.376 120.533 33.646 120.317 33.838C120.101 34.018 119.831 34.108 119.507 34.108C119.183 34.108 118.913 34.018 118.697 33.838C118.493 33.646 118.391 33.376 118.391 33.028V26.062C118.391 25.726 118.493 25.468 118.697 25.288C118.913 25.108 119.177 25.018 119.489 25.018C119.801 25.018 120.053 25.108 120.245 25.288C120.437 25.456 120.533 25.702 120.533 26.026V26.746C120.761 26.218 121.097 25.81 121.541 25.522C121.997 25.234 122.501 25.072 123.053 25.036L123.305 25.018ZM132.072 31.588C132.276 31.588 132.438 31.666 132.558 31.822C132.69 31.978 132.756 32.188 132.756 32.452C132.756 32.824 132.534 33.136 132.09 33.388C131.682 33.616 131.22 33.802 130.704 33.946C130.188 34.078 129.696 34.144 129.228 34.144C127.812 34.144 126.69 33.736 125.862 32.92C125.034 32.104 124.62 30.988 124.62 29.572C124.62 28.672 124.8 27.874 125.16 27.178C125.52 26.482 126.024 25.942 126.672 25.558C127.332 25.174 128.076 24.982 128.904 24.982C129.696 24.982 130.386 25.156 130.974 25.504C131.562 25.852 132.018 26.344 132.342 26.98C132.666 27.616 132.828 28.366 132.828 29.23C132.828 29.746 132.6 30.004 132.144 30.004H126.834C126.906 30.832 127.14 31.444 127.536 31.84C127.932 32.224 128.508 32.416 129.264 32.416C129.648 32.416 129.984 32.368 130.272 32.272C130.572 32.176 130.908 32.044 131.28 31.876C131.64 31.684 131.904 31.588 132.072 31.588ZM128.958 26.566C128.346 26.566 127.854 26.758 127.482 27.142C127.122 27.526 126.906 28.078 126.834 28.798H130.902C130.878 28.066 130.698 27.514 130.362 27.142C130.026 26.758 129.558 26.566 128.958 26.566Z" fill="white"/>
<path d="M50.45 16C49.9967 16 49.77 15.7733 49.77 15.32V9.63C49.77 9.17667 49.9967 8.95 50.45 8.95H52.39C53.57 8.95 54.48 9.25333 55.12 9.86C55.7667 10.4667 56.09 11.3367 56.09 12.47C56.09 13.5967 55.7667 14.4667 55.12 15.08C54.48 15.6933 53.57 16 52.39 16H50.45ZM51.05 14.94H52.31C53.9367 14.94 54.75 14.1167 54.75 12.47C54.75 10.83 53.9367 10.01 52.31 10.01H51.05V14.94ZM59.4972 16.1C58.9905 16.1 58.5505 15.9967 58.1772 15.79C57.8039 15.5833 57.5139 15.29 57.3072 14.91C57.1005 14.5233 56.9972 14.07 56.9972 13.55C56.9972 13.03 57.1005 12.58 57.3072 12.2C57.5139 11.82 57.8039 11.5267 58.1772 11.32C58.5505 11.1133 58.9905 11.01 59.4972 11.01C60.0039 11.01 60.4439 11.1133 60.8172 11.32C61.1905 11.5267 61.4805 11.82 61.6872 12.2C61.8939 12.58 61.9972 13.03 61.9972 13.55C61.9972 14.07 61.8939 14.5233 61.6872 14.91C61.4805 15.29 61.1905 15.5833 60.8172 15.79C60.4439 15.9967 60.0039 16.1 59.4972 16.1ZM59.4972 15.15C59.8705 15.15 60.1705 15.0167 60.3972 14.75C60.6239 14.4767 60.7372 14.0767 60.7372 13.55C60.7372 13.0167 60.6239 12.62 60.3972 12.36C60.1705 12.0933 59.8705 11.96 59.4972 11.96C59.1239 11.96 58.8239 12.0933 58.5972 12.36C58.3705 12.62 58.2572 13.0167 58.2572 13.55C58.2572 14.0767 58.3705 14.4767 58.5972 14.75C58.8239 15.0167 59.1239 15.15 59.4972 15.15ZM64.8213 16.08C64.4746 16.08 64.2346 15.9067 64.1013 15.56L62.6513 11.86C62.5646 11.6267 62.5679 11.43 62.6613 11.27C62.7613 11.11 62.9346 11.03 63.1813 11.03C63.3279 11.03 63.4479 11.0667 63.5413 11.14C63.6346 11.2067 63.7146 11.3367 63.7813 11.53L64.8813 14.54L66.0113 11.45C66.1179 11.17 66.3079 11.03 66.5813 11.03C66.8613 11.03 67.0513 11.17 67.1513 11.45L68.2813 14.57L69.3913 11.5C69.4579 11.32 69.5413 11.1967 69.6413 11.13C69.7479 11.0633 69.8646 11.03 69.9913 11.03C70.2313 11.03 70.3879 11.1167 70.4613 11.29C70.5346 11.4567 70.5279 11.6467 70.4413 11.86L69.0013 15.56C68.8613 15.9067 68.6213 16.08 68.2813 16.08C67.9279 16.08 67.6879 15.9067 67.5612 15.56L66.5413 12.85L65.5413 15.55C65.4146 15.9033 65.1746 16.08 64.8213 16.08ZM72.0766 16.08C71.6633 16.08 71.4566 15.8667 71.4566 15.44V11.66C71.4566 11.24 71.66 11.03 72.0666 11.03C72.4733 11.03 72.6766 11.24 72.6766 11.66V11.87C72.8433 11.59 73.0666 11.3767 73.3466 11.23C73.6333 11.0833 73.9533 11.01 74.3066 11.01C75.46 11.01 76.0366 11.68 76.0366 13.02V15.44C76.0366 15.8667 75.83 16.08 75.4166 16.08C74.9966 16.08 74.7866 15.8667 74.7866 15.44V13.08C74.7866 12.7 74.7133 12.4233 74.5666 12.25C74.4266 12.0767 74.2066 11.99 73.9066 11.99C73.54 11.99 73.2466 12.1067 73.0266 12.34C72.8133 12.5667 72.7066 12.87 72.7066 13.25V15.44C72.7066 15.8667 72.4966 16.08 72.0766 16.08ZM78.9763 16.1C77.8629 16.1 77.3063 15.4767 77.3063 14.23V9.5C77.3063 9.08 77.5129 8.87 77.9263 8.87C78.3463 8.87 78.5563 9.08 78.5563 9.5V14.17C78.5563 14.77 78.8063 15.07 79.3063 15.07C79.3596 15.07 79.4096 15.07 79.4563 15.07C79.5029 15.0633 79.5496 15.0567 79.5962 15.05C79.6896 15.0367 79.7529 15.0633 79.7863 15.13C79.8196 15.19 79.8363 15.3167 79.8363 15.51C79.8363 15.6767 79.8029 15.8067 79.7363 15.9C79.6696 15.9933 79.5596 16.05 79.4063 16.07C79.2663 16.09 79.1229 16.1 78.9763 16.1ZM82.6808 16.1C82.1741 16.1 81.7341 15.9967 81.3608 15.79C80.9874 15.5833 80.6974 15.29 80.4908 14.91C80.2841 14.5233 80.1808 14.07 80.1808 13.55C80.1808 13.03 80.2841 12.58 80.4908 12.2C80.6974 11.82 80.9874 11.5267 81.3608 11.32C81.7341 11.1133 82.1741 11.01 82.6808 11.01C83.1874 11.01 83.6274 11.1133 84.0008 11.32C84.3741 11.5267 84.6641 11.82 84.8708 12.2C85.0774 12.58 85.1808 13.03 85.1808 13.55C85.1808 14.07 85.0774 14.5233 84.8708 14.91C84.6641 15.29 84.3741 15.5833 84.0008 15.79C83.6274 15.9967 83.1874 16.1 82.6808 16.1ZM82.6808 15.15C83.0541 15.15 83.3541 15.0167 83.5808 14.75C83.8074 14.4767 83.9208 14.0767 83.9208 13.55C83.9208 13.0167 83.8074 12.62 83.5808 12.36C83.3541 12.0933 83.0541 11.96 82.6808 11.96C82.3074 11.96 82.0074 12.0933 81.7808 12.36C81.5541 12.62 81.4408 13.0167 81.4408 13.55C81.4408 14.0767 81.5541 14.4767 81.7808 14.75C82.0074 15.0167 82.3074 15.15 82.6808 15.15ZM87.8225 16.1C87.4692 16.1 87.1525 16.0333 86.8725 15.9C86.5992 15.76 86.3825 15.5733 86.2225 15.34C86.0692 15.1067 85.9925 14.8433 85.9925 14.55C85.9925 14.19 86.0858 13.9067 86.2725 13.7C86.4592 13.4867 86.7625 13.3333 87.1825 13.24C87.6025 13.1467 88.1658 13.1 88.8725 13.1H89.2225V12.89C89.2225 12.5567 89.1492 12.3167 89.0025 12.17C88.8558 12.0233 88.6092 11.95 88.2625 11.95C88.0692 11.95 87.8592 11.9733 87.6325 12.02C87.4125 12.0667 87.1792 12.1467 86.9325 12.26C86.7725 12.3333 86.6392 12.3433 86.5325 12.29C86.4258 12.23 86.3525 12.14 86.3125 12.02C86.2792 11.8933 86.2858 11.7667 86.3325 11.64C86.3858 11.5133 86.4892 11.42 86.6425 11.36C86.9492 11.2333 87.2425 11.1433 87.5225 11.09C87.8092 11.0367 88.0692 11.01 88.3025 11.01C89.0158 11.01 89.5458 11.1767 89.8925 11.51C90.2392 11.8367 90.4125 12.3467 90.4125 13.04V15.44C90.4125 15.8667 90.2192 16.08 89.8325 16.08C89.4392 16.08 89.2425 15.8667 89.2425 15.44V15.22C89.1292 15.4933 88.9492 15.71 88.7025 15.87C88.4558 16.0233 88.1625 16.1 87.8225 16.1ZM88.0825 15.24C88.4092 15.24 88.6792 15.1267 88.8925 14.9C89.1125 14.6733 89.2225 14.3867 89.2225 14.04V13.82H88.8825C88.2558 13.82 87.8192 13.87 87.5725 13.97C87.3325 14.0633 87.2125 14.2367 87.2125 14.49C87.2125 14.71 87.2892 14.89 87.4425 15.03C87.5958 15.17 87.8092 15.24 88.0825 15.24ZM93.5613 16.1C93.1346 16.1 92.7579 15.9967 92.4313 15.79C92.1113 15.5833 91.8613 15.29 91.6813 14.91C91.5013 14.5233 91.4113 14.07 91.4113 13.55C91.4113 13.0233 91.5013 12.5733 91.6813 12.2C91.8613 11.82 92.1113 11.5267 92.4313 11.32C92.7579 11.1133 93.1346 11.01 93.5613 11.01C93.9079 11.01 94.2213 11.0867 94.5013 11.24C94.7813 11.3933 94.9913 11.5967 95.1313 11.85V9.5C95.1313 9.08 95.3379 8.87 95.7513 8.87C96.1713 8.87 96.3813 9.08 96.3813 9.5V15.44C96.3813 15.8667 96.1746 16.08 95.7613 16.08C95.3479 16.08 95.1413 15.8667 95.1413 15.44V15.23C95.0013 15.4967 94.7913 15.71 94.5113 15.87C94.2313 16.0233 93.9146 16.1 93.5613 16.1ZM93.9113 15.15C94.2846 15.15 94.5846 15.0167 94.8113 14.75C95.0379 14.4767 95.1513 14.0767 95.1513 13.55C95.1513 13.0167 95.0379 12.62 94.8113 12.36C94.5846 12.0933 94.2846 11.96 93.9113 11.96C93.5379 11.96 93.2379 12.0933 93.0113 12.36C92.7846 12.62 92.6713 13.0167 92.6713 13.55C92.6713 14.0767 92.7846 14.4767 93.0113 14.75C93.2379 15.0167 93.5379 15.15 93.9113 15.15ZM102.622 16.1C102.116 16.1 101.676 15.9967 101.302 15.79C100.929 15.5833 100.639 15.29 100.432 14.91C100.226 14.5233 100.122 14.07 100.122 13.55C100.122 13.03 100.226 12.58 100.432 12.2C100.639 11.82 100.929 11.5267 101.302 11.32C101.676 11.1133 102.116 11.01 102.622 11.01C103.129 11.01 103.569 11.1133 103.942 11.32C104.316 11.5267 104.606 11.82 104.812 12.2C105.019 12.58 105.122 13.03 105.122 13.55C105.122 14.07 105.019 14.5233 104.812 14.91C104.606 15.29 104.316 15.5833 103.942 15.79C103.569 15.9967 103.129 16.1 102.622 16.1ZM102.622 15.15C102.996 15.15 103.296 15.0167 103.522 14.75C103.749 14.4767 103.862 14.0767 103.862 13.55C103.862 13.0167 103.749 12.62 103.522 12.36C103.296 12.0933 102.996 11.96 102.622 11.96C102.249 11.96 101.949 12.0933 101.722 12.36C101.496 12.62 101.382 13.0167 101.382 13.55C101.382 14.0767 101.496 14.4767 101.722 14.75C101.949 15.0167 102.249 15.15 102.622 15.15ZM106.774 16.08C106.361 16.08 106.154 15.8667 106.154 15.44V11.66C106.154 11.24 106.357 11.03 106.764 11.03C107.171 11.03 107.374 11.24 107.374 11.66V11.87C107.541 11.59 107.764 11.3767 108.044 11.23C108.331 11.0833 108.651 11.01 109.004 11.01C110.157 11.01 110.734 11.68 110.734 13.02V15.44C110.734 15.8667 110.527 16.08 110.114 16.08C109.694 16.08 109.484 15.8667 109.484 15.44V13.08C109.484 12.7 109.411 12.4233 109.264 12.25C109.124 12.0767 108.904 11.99 108.604 11.99C108.237 11.99 107.944 12.1067 107.724 12.34C107.511 12.5667 107.404 12.87 107.404 13.25V15.44C107.404 15.8667 107.194 16.08 106.774 16.08ZM116.958 16.1C115.665 16.1 115.018 15.46 115.018 14.18V12.05H114.498C114.165 12.05 113.998 11.8933 113.998 11.58C113.998 11.2667 114.165 11.11 114.498 11.11H115.018V10.2C115.018 9.78 115.228 9.57 115.648 9.57C116.062 9.57 116.268 9.78 116.268 10.2V11.11H117.328C117.662 11.11 117.828 11.2667 117.828 11.58C117.828 11.8933 117.662 12.05 117.328 12.05H116.268V14.11C116.268 14.43 116.338 14.67 116.478 14.83C116.618 14.99 116.845 15.07 117.158 15.07C117.272 15.07 117.372 15.06 117.458 15.04C117.545 15.02 117.622 15.0067 117.688 15C117.768 14.9933 117.835 15.02 117.888 15.08C117.942 15.1333 117.968 15.2467 117.968 15.42C117.968 15.5533 117.945 15.6733 117.898 15.78C117.858 15.88 117.782 15.95 117.668 15.99C117.582 16.0167 117.468 16.04 117.328 16.06C117.188 16.0867 117.065 16.1 116.958 16.1ZM119.303 16.08C118.89 16.08 118.683 15.8667 118.683 15.44V9.5C118.683 9.08 118.89 8.87 119.303 8.87C119.723 8.87 119.933 9.08 119.933 9.5V11.82C120.1 11.5533 120.323 11.3533 120.603 11.22C120.883 11.08 121.193 11.01 121.533 11.01C122.687 11.01 123.263 11.68 123.263 13.02V15.44C123.263 15.8667 123.057 16.08 122.643 16.08C122.223 16.08 122.013 15.8667 122.013 15.44V13.08C122.013 12.7 121.94 12.4233 121.793 12.25C121.653 12.0767 121.433 11.99 121.133 11.99C120.767 11.99 120.473 12.1067 120.253 12.34C120.04 12.5667 119.933 12.87 119.933 13.25V15.44C119.933 15.8667 119.723 16.08 119.303 16.08ZM126.943 16.1C126.389 16.1 125.913 15.9967 125.513 15.79C125.113 15.5833 124.803 15.29 124.583 14.91C124.369 14.53 124.263 14.08 124.263 13.56C124.263 13.0533 124.366 12.61 124.573 12.23C124.786 11.85 125.076 11.5533 125.443 11.34C125.816 11.12 126.239 11.01 126.713 11.01C127.406 11.01 127.953 11.23 128.353 11.67C128.759 12.11 128.963 12.71 128.963 13.47C128.963 13.7167 128.803 13.84 128.483 13.84H125.463C125.556 14.7133 126.056 15.15 126.963 15.15C127.136 15.15 127.329 15.13 127.543 15.09C127.763 15.0433 127.969 14.9667 128.163 14.86C128.336 14.76 128.483 14.73 128.603 14.77C128.723 14.8033 128.806 14.8733 128.853 14.98C128.906 15.0867 128.913 15.2067 128.873 15.34C128.839 15.4667 128.746 15.5767 128.593 15.67C128.359 15.8167 128.089 15.9267 127.783 16C127.483 16.0667 127.203 16.1 126.943 16.1ZM126.763 11.86C126.396 11.86 126.099 11.9733 125.873 12.2C125.646 12.4267 125.509 12.7333 125.463 13.12H127.923C127.896 12.7133 127.783 12.4033 127.583 12.19C127.389 11.97 127.116 11.86 126.763 11.86Z" fill="white"/>
<path d="M35.0457 22.8903C35.0123 19.3528 38.0969 17.6319 38.2377 17.552C36.4907 15.1339 33.7822 14.8038 32.8309 14.7774C30.5568 14.55 28.3504 16.069 27.1925 16.069C26.0106 16.069 24.2265 14.7994 22.3036 14.8363C19.8285 14.8731 17.5146 16.2323 16.2447 18.344C13.6242 22.6498 15.5777 28.9768 18.088 32.4572C19.344 34.1615 20.8113 36.065 22.7324 35.9983C24.611 35.9245 25.3131 34.8613 27.5807 34.8613C29.8269 34.8613 30.4864 35.9983 32.4455 35.9553C34.4621 35.9245 35.7311 34.2431 36.9427 32.5231C38.3942 30.5695 38.9768 28.6458 39 28.5465C38.9528 28.5316 35.0836 27.1303 35.0447 22.8903H35.0457ZM31.3451 12.4884C32.3557 11.2882 33.0476 9.65682 32.855 8C31.3933 8.06146 29.5638 8.96055 28.5106 10.1336C27.5779 11.1688 26.7461 12.8634 26.96 14.4561C28.6033 14.572 30.2901 13.6694 31.3442 12.4884H31.3451Z" fill="white"/>
</svg>
