<svg width="160" height="60" viewBox="0 0 160 60" fill="none" xmlns="http://www.w3.org/2000/svg">
<path fill-rule="evenodd" clip-rule="evenodd" d="M65.2544 0L80.48 38.3404L18.0949 60L0 4.16915L65.2544 0ZM40.9282 19.9938C36.868 22.2423 34.7778 26.1165 35.1042 31.3144C35.4242 36.4269 37.9553 39.703 42.1647 41.4315C45.5558 42.8229 49.0361 43.012 52.5645 42.4448C53.5191 42.2906 54.4546 41.9977 55.352 41.7449L55.8856 41.599V36.0723C53.4327 36.3375 51.2044 36.8688 49.0024 36.7496C45.8031 36.5769 43.6984 34.0366 43.5393 30.7728C43.3093 26.0353 46.475 23.1508 51.1217 23.976C52.3536 24.1938 53.5527 24.6491 54.8201 25.0581L55.3674 25.2286V19.0433C50.3734 17.4155 45.5295 17.4453 40.9282 19.9938ZM93.7473 33.6389C94.1564 33.6389 94.5473 33.7026 94.9228 33.83C95.2956 33.9575 95.6247 34.2164 95.9065 34.6069L95.0819 35.4568C94.9547 35.2338 94.7746 35.054 94.5419 34.9183C94.3082 34.7826 94.0437 34.7148 93.7473 34.7148C93.4655 34.7148 93.2309 34.7559 93.0445 34.8402C92.8572 34.9245 92.7072 35.0324 92.5945 35.1639C92.4818 35.2954 92.4017 35.4373 92.3563 35.5883C92.3099 35.7404 92.2881 35.8802 92.2881 36.0076C92.2881 36.3663 92.3781 36.6417 92.5627 36.8328C92.7463 37.0239 92.9736 37.1801 93.2445 37.2994C93.5164 37.4196 93.8128 37.5254 94.1346 37.622C94.4555 37.7186 94.7519 37.8522 95.0228 38.0228C95.2947 38.1955 95.5229 38.4267 95.7047 38.7175C95.8902 39.0083 95.9811 39.4091 95.9811 39.9198C95.9811 40.3268 95.912 40.6937 95.7756 41.0194C95.6365 41.3472 95.452 41.6227 95.2192 41.8456C94.9865 42.0697 94.7119 42.2413 94.3937 42.3595C94.0755 42.4807 93.7364 42.5403 93.3782 42.5403C92.8963 42.5403 92.4418 42.4437 92.0126 42.2526C91.5808 42.0615 91.2389 41.7665 90.9853 41.3678L91.8217 40.5539C92.0054 40.8653 92.2399 41.0944 92.5254 41.2414C92.8118 41.3894 93.1063 41.4634 93.4091 41.4634C93.5791 41.4634 93.7509 41.4325 93.9273 41.3729C94.1046 41.3133 94.2637 41.2239 94.4092 41.1047C94.5537 40.9845 94.6728 40.8365 94.7637 40.6618C94.8546 40.4861 94.9019 40.2816 94.9019 40.0514C94.9019 39.7246 94.8092 39.4749 94.6264 39.3033C94.4437 39.1327 94.2155 38.9888 93.9437 38.8716C93.6709 38.7576 93.3764 38.6456 93.0545 38.5377C92.7336 38.4308 92.4363 38.2808 92.1654 38.0896C91.8926 37.8985 91.6653 37.6405 91.4835 37.3178C91.299 36.9941 91.208 36.5574 91.208 36.0076C91.208 35.7599 91.2553 35.4969 91.3499 35.2184C91.4462 34.9389 91.5953 34.684 91.8008 34.4518C92.0054 34.2205 92.2681 34.0273 92.589 33.8722C92.9091 33.716 93.2964 33.6389 93.7473 33.6389ZM147.774 36.5101C148.218 36.5101 148.594 36.5985 148.9 36.7732C149.207 36.9479 149.459 37.1781 149.657 37.4607C149.856 37.7443 149.997 38.0639 150.087 38.4185C150.174 38.773 150.218 39.1347 150.218 39.5016V39.8839H146.195C146.195 40.1305 146.244 40.3566 146.34 40.5601C146.434 40.7635 146.56 40.9372 146.715 41.0801C146.871 41.2239 147.05 41.3359 147.254 41.4161C147.459 41.4952 147.671 41.5353 147.89 41.5353C148.186 41.5353 148.444 41.4572 148.662 41.302C148.88 41.1458 149.082 40.9413 149.266 40.6854L149.984 41.3082C149.456 42.082 148.716 42.4684 147.763 42.4684C147.367 42.4684 147.008 42.3924 146.688 42.2413C146.367 42.0892 146.095 41.8806 145.874 41.6134C145.651 41.3462 145.48 41.0307 145.359 40.668C145.241 40.3052 145.18 39.9126 145.18 39.4893C145.18 39.0669 145.245 38.6743 145.375 38.3106C145.507 37.9478 145.686 37.6323 145.915 37.3651C146.145 37.0979 146.418 36.8893 146.735 36.7372C147.054 36.5862 147.399 36.5101 147.774 36.5101ZM136.597 36.5101C137.04 36.5101 137.417 36.5985 137.723 36.7732C138.03 36.9479 138.282 37.1781 138.48 37.4607C138.678 37.7443 138.82 38.0639 138.908 38.4185C138.997 38.773 139.041 39.1347 139.041 39.5016V39.8839H135.018C135.018 40.1305 135.066 40.3566 135.162 40.5601C135.256 40.7635 135.382 40.9372 135.537 41.0801C135.692 41.2239 135.872 41.3359 136.077 41.4161C136.282 41.4952 136.493 41.5353 136.712 41.5353C137.008 41.5353 137.266 41.4572 137.485 41.302C137.703 41.1458 137.905 40.9413 138.088 40.6854L138.808 41.3082C138.279 42.082 137.538 42.4684 136.586 42.4684C136.189 42.4684 135.831 42.3924 135.511 42.2413C135.19 42.0892 134.918 41.8806 134.696 41.6134C134.474 41.3462 134.302 41.0307 134.182 40.668C134.063 40.3052 134.002 39.9126 134.002 39.4893C134.002 39.0669 134.067 38.6743 134.198 38.3106C134.329 37.9478 134.507 37.6323 134.738 37.3651C134.967 37.0979 135.241 36.8893 135.558 36.7372C135.876 36.5862 136.222 36.5101 136.597 36.5101ZM122.274 36.5101C122.718 36.5101 123.094 36.5985 123.401 36.7732C123.708 36.9479 123.96 37.1781 124.158 37.4607C124.356 37.7443 124.498 38.0639 124.588 38.4185C124.674 38.773 124.718 39.1347 124.718 39.5016V39.8839H120.696C120.696 40.1305 120.745 40.3566 120.84 40.5601C120.935 40.7635 121.06 40.9372 121.216 41.0801C121.37 41.2239 121.551 41.3359 121.755 41.4161C121.959 41.4952 122.171 41.5353 122.391 41.5353C122.687 41.5353 122.945 41.4572 123.163 41.302C123.381 41.1458 123.581 40.9413 123.767 40.6854L124.485 41.3082C123.957 42.082 123.217 42.4684 122.263 42.4684C121.867 42.4684 121.51 42.3924 121.188 42.2413C120.867 42.0892 120.595 41.8806 120.374 41.6134C120.152 41.3462 119.98 41.0307 119.86 40.668C119.741 40.3052 119.681 39.9126 119.681 39.4893C119.681 39.0669 119.745 38.6743 119.876 38.3106C120.007 37.9478 120.187 37.6323 120.416 37.3651C120.646 37.0979 120.918 36.8893 121.236 36.7372C121.555 36.5862 121.9 36.5101 122.273 36.5101H122.274ZM117.257 36.5214C117.623 36.5214 117.975 36.5954 118.31 36.7434C118.646 36.8904 118.937 37.1154 119.184 37.4186L118.464 38.1605C118.287 37.9529 118.103 37.7957 117.909 37.6878C117.713 37.5809 117.483 37.5265 117.214 37.5265C116.953 37.5265 116.726 37.5809 116.532 37.6878C116.337 37.7957 116.175 37.9447 116.044 38.1307C115.914 38.3177 115.815 38.5336 115.749 38.7781C115.681 39.0196 115.649 39.2735 115.649 39.5365C115.649 39.7996 115.686 40.0504 115.763 40.2847C115.842 40.521 115.951 40.7265 116.092 40.9012C116.233 41.0759 116.402 41.2136 116.6 41.3133C116.798 41.413 117.021 41.4623 117.268 41.4623C117.535 41.4623 117.764 41.4089 117.954 41.301C118.145 41.1941 118.323 41.0359 118.484 40.8283L119.163 41.5939C118.915 41.9052 118.628 42.1293 118.299 42.2649C117.972 42.3995 117.623 42.4674 117.257 42.4674C116.868 42.4674 116.513 42.3965 116.193 42.2526C115.872 42.1087 115.595 41.9073 115.362 41.6483C115.13 41.3894 114.949 41.078 114.822 40.7152C114.695 40.3525 114.631 39.9517 114.631 39.5129C114.631 39.0741 114.695 38.6713 114.822 38.3044C114.95 37.9375 115.128 37.622 115.357 37.359C115.586 37.0959 115.862 36.8904 116.182 36.7434C116.503 36.5954 116.861 36.5214 117.257 36.5214ZM99.5377 36.5101C99.9814 36.5101 100.358 36.5985 100.665 36.7732C100.972 36.9479 101.224 37.1781 101.421 37.4607C101.619 37.7443 101.762 38.0639 101.851 38.4185C101.938 38.773 101.982 39.1347 101.982 39.5016V39.8839H97.9603C97.9603 40.1305 98.0076 40.3566 98.1031 40.5601C98.1985 40.7635 98.3231 40.9372 98.4794 41.0801C98.634 41.2239 98.814 41.3359 99.0186 41.4161C99.2231 41.4952 99.4341 41.5353 99.655 41.5353C99.9504 41.5353 100.208 41.4572 100.428 41.302C100.646 41.1458 100.846 40.9413 101.03 40.6854L101.75 41.3082C101.221 42.082 100.48 42.4684 99.5268 42.4684C99.1304 42.4684 98.774 42.3924 98.4522 42.2413C98.1312 42.0892 97.8594 41.8806 97.6376 41.6134C97.4157 41.3462 97.243 41.0307 97.1239 40.668C97.0039 40.3052 96.9439 39.9126 96.9439 39.4893C96.9439 39.0669 97.0084 38.6743 97.1403 38.3106C97.2703 37.9478 97.4503 37.6323 97.6803 37.3651C97.9094 37.0979 98.1821 36.8893 98.5004 36.7372C98.8186 36.5862 99.164 36.5101 99.5377 36.5101ZM14.3928 18.7607L12.8863 18.7648V42.3944H20.7641V35.3735L22.1915 35.3139C24.0325 35.2317 25.6217 35.1115 26.9464 34.6532C28.8611 33.9893 30.163 33.1436 31.6067 31.6771C34.8733 28.3558 34.0641 22.6102 30.1848 20.2908C28.9202 19.5355 27.4446 18.8932 26.0436 18.8326C23.6543 18.7288 21.2614 18.7196 18.8276 18.7319L14.3928 18.7607ZM140.682 36.653L142.185 40.9958L143.625 36.653H144.641L142.672 42.3256H141.624L139.581 36.653H140.681H140.682ZM107.541 36.653L109.044 40.9958L110.484 36.653H111.499L109.53 42.3256H108.483L106.44 36.653H107.54H107.541ZM105.604 36.5091C105.759 36.5091 105.901 36.5327 106.026 36.581L105.984 37.7423C105.907 37.7176 105.83 37.6981 105.752 37.6816C105.674 37.6662 105.597 37.658 105.519 37.658C105.054 37.658 104.697 37.806 104.45 38.1009C104.204 38.3958 104.079 38.8542 104.079 39.478V42.3245H103.127V36.653H104.079V37.5265H104.1C104.164 37.3754 104.249 37.2367 104.354 37.1133C104.461 36.99 104.579 36.8842 104.709 36.7968C104.84 36.7085 104.983 36.6386 105.138 36.5872C105.294 36.5358 105.448 36.5091 105.604 36.5091ZM152.389 33.2792V42.3245H151.437V33.2792H152.389ZM130.065 33.8537V41.2476H133.505V42.3245H129.049V33.8537H130.065ZM113.362 36.653V42.3245H112.409V36.653H113.362ZM160 33.8537V42.3245H158.984V35.1701L157.607 36.6057L157.015 35.8041L159.101 33.8537H160ZM67.4091 18.6096H59.4095V42.2351H67.4091V18.6096ZM99.5159 37.3713C99.2831 37.3713 99.0704 37.4216 98.8749 37.5213C98.6813 37.621 98.5176 37.7505 98.384 37.9098C98.2494 38.0701 98.1449 38.2468 98.0703 38.4431C97.9976 38.6373 97.9612 38.8305 97.9612 39.0227H100.967C100.96 38.7833 100.926 38.5644 100.867 38.365C100.805 38.1657 100.716 37.992 100.596 37.844C100.476 37.696 100.326 37.5809 100.147 37.4977C99.965 37.4134 99.7559 37.3713 99.5159 37.3713ZM147.752 37.3713C147.518 37.3713 147.305 37.4216 147.112 37.5213C146.917 37.621 146.754 37.7505 146.62 37.9098C146.485 38.0701 146.381 38.2468 146.307 38.4431C146.233 38.6373 146.195 38.8305 146.195 39.0227H149.202C149.195 38.7833 149.161 38.5644 149.102 38.365C149.042 38.1657 148.952 37.992 148.832 37.844C148.712 37.696 148.562 37.5809 148.382 37.4977C148.202 37.4134 147.991 37.3713 147.752 37.3713ZM136.575 37.3713C136.341 37.3713 136.127 37.4216 135.934 37.5213C135.74 37.621 135.576 37.7505 135.442 37.9098C135.307 38.0701 135.204 38.2468 135.129 38.4431C135.055 38.6373 135.018 38.8305 135.018 39.0227H138.025C138.018 38.7833 137.984 38.5644 137.925 38.365C137.864 38.1657 137.774 37.992 137.655 37.844C137.534 37.696 137.385 37.5809 137.205 37.4977C137.023 37.4134 136.814 37.3713 136.575 37.3713ZM122.252 37.3713C122.019 37.3713 121.806 37.4216 121.612 37.5213C121.417 37.621 121.255 37.7505 121.12 37.9098C120.986 38.0701 120.881 38.2468 120.807 38.4431C120.734 38.6373 120.696 38.8305 120.696 39.0227H123.703C123.696 38.7833 123.662 38.5644 123.602 38.365C123.542 38.1657 123.453 37.992 123.332 37.844C123.213 37.696 123.062 37.5809 122.883 37.4977C122.701 37.4134 122.492 37.3713 122.252 37.3713ZM112.886 33.83C113.075 33.83 113.24 33.9081 113.378 34.0633C113.515 34.2185 113.583 34.4035 113.583 34.6193C113.583 34.834 113.515 35.02 113.378 35.1752C113.24 35.3314 113.075 35.4095 112.886 35.4095C112.695 35.4095 112.53 35.3314 112.393 35.1752C112.255 35.02 112.187 34.834 112.187 34.6193C112.187 34.4035 112.255 34.2185 112.393 34.0633C112.53 33.9081 112.695 33.83 112.886 33.83ZM25.2063 24.9851C25.6972 25.7517 25.7563 27.4083 25.3517 28.2653C24.5735 29.9168 23.1325 30.0185 21.5769 30.001L20.8241 29.9897V23.756C22.5334 23.3861 24.1998 23.4138 25.2063 24.9851ZM107.476 18.3743C107.886 18.3743 108.277 18.438 108.651 18.5654C109.025 18.6928 109.354 18.9518 109.636 19.3423L108.81 20.1922C108.683 19.9692 108.503 19.7893 108.27 19.6537C108.037 19.518 107.773 19.4502 107.476 19.4502C107.195 19.4502 106.96 19.4923 106.773 19.5756C106.585 19.6598 106.436 19.7678 106.323 19.8993C106.21 20.0308 106.132 20.1726 106.085 20.3237C106.039 20.4758 106.015 20.6156 106.015 20.743C106.015 21.1027 106.107 21.377 106.29 21.5682C106.475 21.7593 106.702 21.9155 106.974 22.0347C107.245 22.155 107.541 22.2618 107.863 22.3574C108.183 22.454 108.481 22.5876 108.751 22.7592C109.024 22.9308 109.251 23.1621 109.434 23.4529C109.618 23.7437 109.709 24.1445 109.709 24.6552C109.709 25.0622 109.641 25.429 109.503 25.7558C109.367 26.0826 109.18 26.358 108.948 26.581C108.714 26.8051 108.439 26.9767 108.122 27.0959C107.804 27.2161 107.466 27.2757 107.105 27.2757C106.626 27.2757 106.171 27.1791 105.74 26.988C105.31 26.7968 104.967 26.5019 104.714 26.1042L105.55 25.2893C105.733 25.6007 105.968 25.8298 106.253 25.9778C106.539 26.1248 106.835 26.1987 107.137 26.1987C107.307 26.1987 107.48 26.1689 107.656 26.1083C107.833 26.0487 107.994 25.9593 108.137 25.8411C108.283 25.7199 108.401 25.5719 108.492 25.3972C108.585 25.2225 108.63 25.018 108.63 24.7868C108.63 24.46 108.539 24.2113 108.355 24.0386C108.171 23.868 107.944 23.7242 107.673 23.6081C107.4 23.493 107.104 23.382 106.782 23.273C106.462 23.1662 106.165 23.0161 105.894 22.825C105.622 22.6339 105.394 22.3759 105.212 22.0543C105.028 21.7295 104.935 21.2938 104.935 20.743C104.935 20.4963 104.984 20.2322 105.078 19.9538C105.174 19.6742 105.324 19.4194 105.529 19.1871C105.733 18.9559 105.995 18.7627 106.317 18.6075C106.638 18.4513 107.025 18.3743 107.476 18.3743ZM101.591 18.3743C102.001 18.3743 102.392 18.438 102.765 18.5654C103.14 18.6928 103.468 18.9518 103.751 19.3423L102.926 20.1922C102.798 19.9692 102.619 19.7893 102.386 19.6537C102.152 19.518 101.887 19.4502 101.591 19.4502C101.31 19.4502 101.074 19.4923 100.888 19.5756C100.701 19.6598 100.55 19.7678 100.439 19.8993C100.325 20.0308 100.246 20.1726 100.2 20.3237C100.154 20.4758 100.131 20.6156 100.131 20.743C100.131 21.1027 100.222 21.377 100.406 21.5682C100.59 21.7593 100.817 21.9155 101.088 22.0347C101.36 22.155 101.656 22.2618 101.978 22.3574C102.298 22.454 102.596 22.5876 102.866 22.7592C103.139 22.9308 103.366 23.1621 103.548 23.4529C103.734 23.7437 103.823 24.1445 103.823 24.6552C103.823 25.0622 103.756 25.429 103.619 25.7558C103.48 26.0826 103.295 26.358 103.062 26.581C102.829 26.8051 102.554 26.9767 102.236 27.0959C101.919 27.2161 101.581 27.2757 101.221 27.2757C100.741 27.2757 100.286 27.1791 99.8559 26.988C99.424 26.7968 99.0831 26.5019 98.8286 26.1042L99.665 25.2893C99.8486 25.6007 100.083 25.8298 100.368 25.9778C100.655 26.1248 100.95 26.1987 101.253 26.1987C101.422 26.1987 101.595 26.1689 101.771 26.1083C101.948 26.0487 102.108 25.9593 102.253 25.8411C102.397 25.7199 102.515 25.5719 102.608 25.3972C102.699 25.2225 102.744 25.018 102.744 24.7868C102.744 24.46 102.653 24.2113 102.47 24.0386C102.286 23.868 102.059 23.7242 101.788 23.6081C101.515 23.493 101.219 23.382 100.897 23.273C100.576 23.1662 100.28 23.0161 100.008 22.825C99.7359 22.6339 99.5086 22.3759 99.3259 22.0543C99.1422 21.7295 99.0504 21.2938 99.0504 20.743C99.0504 20.4963 99.0986 20.2322 99.1931 19.9538C99.2886 19.6742 99.4386 19.4194 99.6441 19.1871C99.8486 18.9559 100.111 18.7627 100.433 18.6075C100.753 18.4513 101.14 18.3743 101.591 18.3743ZM117.595 18.3743C118.09 18.3743 118.574 18.4822 119.051 18.698C119.527 18.9128 119.917 19.2426 120.221 19.6907L119.374 20.4203C119.163 20.1089 118.894 19.8705 118.569 19.703C118.244 19.5355 117.909 19.4512 117.564 19.4512C117.14 19.4512 116.757 19.5417 116.415 19.7205C116.072 19.9003 115.78 20.1449 115.536 20.4563C115.293 20.7676 115.105 21.1325 114.97 21.5517C114.837 21.97 114.77 22.418 114.77 22.8969C114.77 23.344 114.833 23.7663 114.961 24.1661C115.088 24.5648 115.27 24.9152 115.51 25.2184C115.75 25.5215 116.042 25.761 116.389 25.9367C116.735 26.1114 117.125 26.1998 117.564 26.1998C117.993 26.1998 118.372 26.1001 118.696 25.9007C119.02 25.7014 119.296 25.4218 119.522 25.0632L120.378 25.7928L120.291 25.9161C120.237 25.9871 120.168 26.0713 120.083 26.17C119.942 26.3334 119.755 26.4968 119.522 26.6602C119.288 26.8236 119.008 26.9674 118.68 27.0907C118.353 27.2141 117.973 27.2757 117.543 27.2757C116.95 27.2757 116.416 27.1483 115.94 26.8934C115.462 26.6386 115.058 26.3036 114.721 25.8884C114.386 25.4732 114.131 25.0046 113.954 24.4826C113.778 23.9605 113.69 23.4313 113.69 22.8969C113.69 22.2433 113.785 21.6391 113.976 21.0842C114.165 20.5292 114.431 20.0514 114.774 19.6485C115.117 19.2457 115.529 18.9333 116.008 18.7093C116.487 18.4863 117.017 18.3743 117.595 18.3743ZM132.489 19.7976V21.3904H133.855V22.3225H132.489V24.8947C132.489 25.054 132.493 25.2132 132.5 25.3674C132.506 25.5226 132.533 25.6623 132.579 25.7867C132.624 25.91 132.695 26.0097 132.791 26.0857C132.885 26.1607 133.025 26.1987 133.208 26.1987C133.321 26.1987 133.437 26.1864 133.558 26.1628C133.677 26.1391 133.787 26.095 133.885 26.0312V27.0126C133.773 27.0846 133.626 27.1339 133.446 27.1616C133.267 27.1894 133.126 27.2038 133.029 27.2038C132.662 27.2038 132.377 27.1462 132.176 27.0301C131.975 26.915 131.827 26.765 131.732 26.5821C131.637 26.3981 131.58 26.1926 131.563 25.9655C131.544 25.7394 131.535 25.5092 131.535 25.2769V22.3225H130.434V21.3894H131.535V19.7976H132.489ZM154.6 18.0156V27.0599H153.647V26.2481H153.627C153.442 26.5502 153.19 26.7855 152.87 26.952C152.548 27.1195 152.219 27.2038 151.879 27.2038C151.491 27.2038 151.141 27.1277 150.827 26.9777C150.512 26.8246 150.244 26.6139 150.022 26.3426C149.8 26.0713 149.628 25.7569 149.509 25.3972C149.388 25.0385 149.328 24.648 149.328 24.2257C149.328 23.8023 149.388 23.4097 149.509 23.0459C149.628 22.6832 149.8 22.3677 150.022 22.1015C150.244 21.8343 150.512 21.6247 150.827 21.4726C151.141 21.3215 151.491 21.2465 151.879 21.2465C152.24 21.2465 152.579 21.3318 152.896 21.5034C153.213 21.674 153.456 21.9073 153.627 22.2022H153.647V18.0156H154.6ZM145.984 21.2455C146.428 21.2455 146.805 21.3339 147.112 21.5086C147.419 21.6843 147.671 21.9135 147.868 22.1971C148.066 22.4797 148.209 22.7993 148.297 23.1538C148.385 23.5084 148.429 23.8701 148.429 24.237V24.6193H144.407C144.407 24.8669 144.454 25.092 144.55 25.2954C144.645 25.4989 144.77 25.6726 144.926 25.8154C145.081 25.9593 145.261 26.0723 145.465 26.1515C145.67 26.2306 145.881 26.2707 146.101 26.2707C146.397 26.2707 146.655 26.1926 146.874 26.0374C147.092 25.8812 147.293 25.6777 147.476 25.4208L148.196 26.0436C147.667 26.8174 146.926 27.2048 145.974 27.2048C145.577 27.2048 145.221 27.1277 144.899 26.9767C144.578 26.8246 144.306 26.617 144.084 26.3498C143.863 26.0826 143.69 25.7661 143.571 25.4044C143.451 25.0406 143.391 24.648 143.391 24.2246C143.391 23.8033 143.455 23.4097 143.587 23.0459C143.717 22.6832 143.897 22.3677 144.127 22.1015C144.356 21.8343 144.629 21.6247 144.947 21.4726C145.264 21.3215 145.61 21.2465 145.984 21.2465V21.2455ZM123.66 21.2455C124.106 21.2455 124.48 21.3339 124.788 21.5086C125.095 21.6843 125.347 21.9135 125.544 22.1971C125.742 22.4797 125.885 22.7993 125.974 23.1538C126.06 23.5084 126.105 23.8701 126.105 24.237V24.6193H122.083C122.083 24.8669 122.131 25.092 122.227 25.2954C122.321 25.4989 122.447 25.6726 122.602 25.8154C122.757 25.9593 122.938 26.0723 123.141 26.1515C123.346 26.2306 123.558 26.2707 123.778 26.2707C124.074 26.2707 124.332 26.1926 124.55 26.0374C124.769 25.8812 124.969 25.6777 125.153 25.4208L125.872 26.0436C125.343 26.8174 124.603 27.2048 123.649 27.2048C123.254 27.2048 122.897 27.1277 122.575 26.9767C122.254 26.8246 121.982 26.617 121.76 26.3498C121.538 26.0826 121.366 25.7661 121.246 25.4044C121.128 25.0406 121.067 24.648 121.067 24.2246C121.067 23.8033 121.132 23.4097 121.263 23.0459C121.394 22.6832 121.574 22.3677 121.803 22.1015C122.032 21.8343 122.305 21.6247 122.623 21.4726C122.941 21.3215 123.287 21.2465 123.66 21.2465V21.2455ZM94.0437 18.5901C94.5728 18.5901 95.0374 18.6579 95.4356 18.7935C95.8356 18.9292 96.1793 19.1101 96.4729 19.3382C96.7657 19.5643 97.0093 19.8263 97.203 20.1213C97.3975 20.4172 97.5503 20.7193 97.6639 21.0307C97.7767 21.3411 97.8576 21.6524 97.9076 21.9638C97.9567 22.2752 97.9821 22.5619 97.9821 22.825C97.9821 23.3676 97.893 23.8917 97.7185 24.3993C97.5403 24.9049 97.2785 25.3551 96.9339 25.7507C96.5884 26.1453 96.1593 26.4628 95.6465 26.7023C95.1356 26.9417 94.5446 27.0609 93.8746 27.0609H91.4299V18.5901H94.0437ZM139.708 17.8717C139.814 17.8717 139.925 17.8759 140.041 17.8831C140.158 17.8913 140.283 17.9149 140.417 17.955L140.311 18.9128C140.219 18.8727 140.132 18.8449 140.047 18.8285C139.961 18.812 139.87 18.8048 139.771 18.8048C139.595 18.8048 139.453 18.8357 139.348 18.8943C139.242 18.9559 139.159 19.0402 139.099 19.1522C139.039 19.2632 138.999 19.3968 138.983 19.553C138.965 19.7081 138.956 19.8859 138.956 20.0853V21.3904H140.09V22.3225H138.946V27.0599H137.993V22.3225H136.914V21.3894H137.993V20.1213C137.993 19.3639 138.122 18.7997 138.379 18.4287C138.637 18.0588 139.079 17.8738 139.707 17.8738L139.708 17.8717ZM142.174 21.3894V27.0609H141.221V21.3894H142.174ZM136.108 21.3894V27.0609H135.156V21.3894H136.108ZM129.726 21.2455C129.881 21.2455 130.023 21.2691 130.149 21.3174L130.107 22.4787C130.03 22.454 129.952 22.4345 129.874 22.417C129.797 22.4026 129.72 22.3944 129.641 22.3944C129.175 22.3944 128.819 22.5424 128.571 22.8363C128.326 23.1323 128.201 23.5906 128.201 24.2133V27.0599H127.249V21.3894H128.201V22.2629H128.222C128.286 22.1118 128.371 21.9731 128.477 21.8498C128.582 21.7264 128.701 21.6206 128.832 21.5332C128.962 21.4449 129.104 21.375 129.261 21.3236C129.415 21.2712 129.571 21.2455 129.726 21.2455ZM151.997 22.2505C151.742 22.2505 151.513 22.3019 151.308 22.4006C151.104 22.5003 150.93 22.6369 150.789 22.8065C150.648 22.9781 150.538 23.1867 150.461 23.4292C150.384 23.6728 150.346 23.9379 150.346 24.2246C150.346 24.5124 150.384 24.7775 150.461 25.0211C150.538 25.2636 150.648 25.4712 150.789 25.6418C150.93 25.8134 151.104 25.9501 151.308 26.0487C151.513 26.1494 151.742 26.1987 151.997 26.1987C152.25 26.1987 152.479 26.1494 152.684 26.0487C152.888 25.9501 153.062 25.8134 153.202 25.6418C153.344 25.4712 153.453 25.2636 153.53 25.0211C153.609 24.7775 153.647 24.5114 153.647 24.2246C153.647 23.9379 153.609 23.6728 153.53 23.4292C153.453 23.1857 153.344 22.9781 153.202 22.8065C153.062 22.6359 152.888 22.5003 152.684 22.4006C152.479 22.3009 152.25 22.2505 151.997 22.2505ZM93.97 19.667H92.4454V25.984H93.7273C94.1573 25.984 94.5637 25.9182 94.9492 25.7867C95.3338 25.6551 95.6702 25.4578 95.9593 25.1937C96.2502 24.9317 96.4784 24.6018 96.6484 24.2072C96.8175 23.8126 96.903 23.3511 96.903 22.825C96.903 22.5547 96.863 22.2372 96.7848 21.8744C96.7066 21.5106 96.5611 21.1653 96.3466 20.8396C96.1311 20.5107 95.8338 20.2353 95.452 20.0072C95.071 19.7801 94.5764 19.667 93.97 19.667ZM145.963 22.1067C145.73 22.1067 145.516 22.1581 145.322 22.2567C145.128 22.3564 144.964 22.4859 144.83 22.6452C144.696 22.8055 144.592 22.9822 144.517 23.1795C144.443 23.3727 144.407 23.5659 144.407 23.7581H147.414C147.406 23.5187 147.373 23.2998 147.313 23.1004C147.252 22.901 147.163 22.7274 147.043 22.5794C146.923 22.4314 146.773 22.3163 146.594 22.2331C146.412 22.1488 146.203 22.1067 145.963 22.1067ZM123.638 22.1067C123.406 22.1067 123.193 22.1581 122.998 22.2567C122.804 22.3564 122.641 22.4859 122.507 22.6452C122.373 22.8055 122.267 22.9822 122.194 23.1795C122.121 23.3727 122.083 23.5659 122.083 23.7581H125.089C125.082 23.5187 125.049 23.2998 124.989 23.1004C124.929 22.901 124.839 22.7274 124.718 22.5794C124.6 22.4314 124.448 22.3163 124.269 22.2331C124.088 22.1488 123.878 22.1067 123.638 22.1067ZM135.632 18.5654C135.823 18.5654 135.987 18.6435 136.124 18.7987C136.262 18.9549 136.331 19.1399 136.331 19.3546C136.331 19.5704 136.262 19.7564 136.124 19.9116C135.987 20.0668 135.823 20.1449 135.632 20.1449C135.442 20.1449 135.277 20.0668 135.14 19.9116C135.003 19.7564 134.934 19.5704 134.934 19.3546C134.934 19.1399 135.003 18.9549 135.14 18.7987C135.277 18.6435 135.442 18.5654 135.632 18.5654ZM141.697 18.5654C141.888 18.5654 142.051 18.6435 142.19 18.7987C142.326 18.9549 142.395 19.1399 142.395 19.3546C142.395 19.5704 142.326 19.7564 142.19 19.9116C142.051 20.0668 141.888 20.1449 141.697 20.1449C141.506 20.1449 141.342 20.0668 141.205 19.9116C141.068 19.7564 140.998 19.5704 140.998 19.3546C140.998 19.1399 141.068 18.9549 141.205 18.7987C141.342 18.6435 141.506 18.5654 141.697 18.5654ZM63.338 5.69726C60.3723 5.68903 58.4567 7.70322 58.4358 10.855C58.4131 13.9996 60.3441 16.0826 63.2843 16.0908C66.2772 16.098 68.1646 14.1013 68.171 10.9197C68.1774 7.74124 66.2936 5.7065 63.338 5.69726Z" fill="white"/>
</svg>
