<svg width="77" height="30" viewBox="0 0 77 30" xmlns="http://www.w3.org/2000/svg">
  <path clip-rule="evenodd" d="M51.7386 18.8567C51.9553 19.0421 52.0737 19.3147 52.0616 19.598C52.0616 20.3962 51.5906 20.7947 50.654 20.7947H42.5885C41.9695 20.8318 41.4339 20.3671 41.3976 19.7569C41.3949 19.7198 41.3949 19.6814 41.3963 19.643C41.3963 19.2327 41.5685 18.8435 41.8713 18.5642L48.5293 11.5166H43.3757C43.0393 11.5391 42.7042 11.4438 42.4337 11.2452C42.2131 11.0533 42.0946 10.7726 42.1108 10.4827C42.1108 9.70039 42.5791 9.30857 43.5183 9.30857H51.2259C51.5516 9.29268 51.8705 9.41711 52.0965 9.64877C52.3065 9.86719 52.4222 10.1584 52.4181 10.4602C52.4101 10.8732 52.2378 11.269 51.9418 11.5629L45.308 18.5867H50.7953C51.1317 18.5642 51.4681 18.6595 51.7386 18.8567ZM55.9975 14.0052H61.4377C61.5091 13.2308 61.2884 12.4564 60.8174 11.8343C60.3599 11.3273 59.6911 11.0559 59.0035 11.0943C57.3175 11.0943 56.3164 12.0646 55.9975 14.0065V14.0052ZM63.6943 15.3091C63.5059 15.4904 63.2503 15.5897 62.9892 15.5791H55.9033C55.8831 16.4475 56.202 17.2881 56.7954 17.9288C57.4319 18.4927 58.2702 18.7799 59.1233 18.7283C59.6346 18.7349 60.146 18.6674 60.6385 18.5298C61.1121 18.3855 61.5656 18.1856 61.9868 17.9288C62.1684 17.8255 62.3729 17.7699 62.5829 17.7646C62.8291 17.754 63.0673 17.8639 63.2153 18.0585C63.37 18.2663 63.4508 18.5178 63.4414 18.7747C63.444 19.2247 63.2207 19.647 62.8453 19.9025C62.3272 20.2572 61.7499 20.5207 61.139 20.6782C60.4205 20.8821 59.679 20.9853 58.9322 20.9827C57.849 21.0078 56.7766 20.7695 55.8064 20.2903C54.9371 19.8509 54.2199 19.1665 53.7422 18.3286C53.2417 17.4218 52.99 16.3999 53.0156 15.3673C52.9954 14.2342 53.2497 13.1117 53.7543 12.0924C54.2159 11.1618 54.9358 10.3808 55.8306 9.83674C56.751 9.28871 57.8086 9.00675 58.8851 9.02528C60.2899 8.94056 61.6625 9.46344 62.6434 10.4589C63.5921 11.6079 64.0657 13.0667 63.9675 14.5466C63.9863 14.8273 63.8841 15.1026 63.693 15.3091H63.6943ZM75.973 10.071C76.7064 10.9315 77.0697 12.0408 76.9889 13.1607C76.9889 13.4572 76.9795 13.6849 76.962 13.8424L76.4857 19.5265C76.4749 19.921 76.3027 20.293 76.008 20.5591C75.7052 20.8172 75.311 20.9509 74.9113 20.9363C74.5171 20.9602 74.1295 20.8238 73.8362 20.5604C73.5738 20.2824 73.45 19.9025 73.5038 19.5265L73.9815 13.9602C74.108 12.2208 73.4083 11.3524 71.8824 11.3524C71.1154 11.3101 70.3685 11.592 69.829 12.1268C69.3001 12.7291 68.9974 13.4916 68.9705 14.2885L68.517 19.5265C68.5062 19.921 68.334 20.293 68.0393 20.5591C67.7365 20.8172 67.3423 20.9509 66.9426 20.9363C66.5524 20.9615 66.1649 20.8251 65.8796 20.5604C65.6239 20.2784 65.4974 19.9025 65.5338 19.5265L66.2981 10.4112C66.2994 10.034 66.4757 9.67524 66.7744 9.43697C67.0933 9.18943 67.4916 9.06103 67.8967 9.07294C68.2667 9.05176 68.6273 9.17884 68.8991 9.42505C69.1427 9.67657 69.249 10.0247 69.1858 10.3649L69.1602 10.811C69.5666 10.2418 70.1169 9.78776 70.7601 9.49521C71.4612 9.17619 72.2282 9.01469 73.0032 9.02661C74.0986 8.94851 75.1764 9.32842 75.973 10.0724V10.071ZM29.0221 8.70229C27.8056 6.85699 25.3782 6.19777 23.3719 7.16675C21.2296 8.23898 20.3752 10.8163 21.4611 12.925C22.0814 14.127 23.24 14.9729 24.5883 15.2072C24.4241 20.2903 20.1047 24.2828 14.9389 24.1213C9.92251 23.9651 5.92471 19.9395 5.87896 14.998C5.87089 11.1909 8.27414 7.78361 11.9019 6.46252C12.5989 6.21498 13.0026 5.49618 12.8411 4.78269L12.8304 4.739C12.6527 3.95799 13.1506 3.18493 13.9418 3.00887C14.0064 2.99563 14.0724 2.98504 14.1383 2.97975C14.5016 2.94665 14.869 2.92944 15.2363 2.92944C15.6911 2.92944 16.1473 2.95592 16.5981 3.00357C17.4162 3.09227 18.1536 2.50982 18.2411 1.70631C18.2451 1.67983 18.2478 1.65071 18.2491 1.62423C18.2707 0.826016 17.6544 0.149583 16.847 0.0833958C16.3115 0.0264749 15.7732 0 15.2363 0C6.82223 0 0 6.71667 0 15.0007C0 23.286 6.82223 30 15.2363 30C23.6517 30 30.4726 23.286 30.4726 15.0007C30.4726 13.534 30.1726 10.3729 29.0221 8.70229Z"/>
  <path clip-rule="evenodd" d="M21.0388 1.13867C21.9129 1.13867 22.6214 1.83452 22.6214 2.69262C22.6214 3.55072 21.9129 4.24657 21.0388 4.24657C20.1648 4.24657 19.4563 3.55072 19.4563 2.69262C19.4563 1.83452 20.1648 1.13867 21.0388 1.13867Z"/>
</svg>
