<svg width="30" height="30" viewBox="0 0 30 30" xmlns="http://www.w3.org/2000/svg">
<path d="M29.2499 23.2282C9.99986 26.5 3.4356 11.5 15.0334 0.75C-2.00007 1.5 -2.08205 18.1838 3.4356 23.9533C14 35 29.2499 23.2282 29.2499 23.2282Z"/>
<path d="M19 6C18.745 6 18.6175 5.86853 18.6175 5.60558V3.33466H16.3825C16.1275 3.33466 16 3.21116 16 2.96414C16 2.71713 16.1275 2.59363 16.3825 2.59363H18.6175V0.394422C18.6175 0.131474 18.745 0 19 0C19.255 0 19.3825 0.131474 19.3825 0.394422V2.59363H21.6175C21.8725 2.59363 22 2.71713 22 2.96414C22 3.21116 21.8725 3.33466 21.6175 3.33466H19.3825V5.60558C19.3825 5.86853 19.255 6 19 6Z"/>
<path d="M26.5 11C26.2875 11 26.1813 10.8904 26.1813 10.6713V8.77888H24.3187C24.1062 8.77888 24 8.67596 24 8.47012C24 8.26428 24.1062 8.16135 24.3187 8.16135H26.1813V6.32869C26.1813 6.10956 26.2875 6 26.5 6C26.7125 6 26.8187 6.10956 26.8187 6.32869V8.16135H28.6813C28.8938 8.16135 29 8.26428 29 8.47012C29 8.67596 28.8938 8.77888 28.6813 8.77888H26.8187V10.6713C26.8187 10.8904 26.7125 11 26.5 11Z"/>
<path d="M16.5 16C16.2875 16 16.1813 15.8904 16.1813 15.6713V13.7789H14.3187C14.1062 13.7789 14 13.676 14 13.4701C14 13.2643 14.1062 13.1614 14.3187 13.1614H16.1813V11.3287C16.1813 11.1096 16.2875 11 16.5 11C16.7125 11 16.8187 11.1096 16.8187 11.3287V13.1614H18.6813C18.8938 13.1614 19 13.2643 19 13.4701C19 13.676 18.8938 13.7789 18.6813 13.7789H16.8187V15.6713C16.8187 15.8904 16.7125 16 16.5 16Z"/>
<path d="M26.5 21C26.2875 21 26.1813 20.8904 26.1813 20.6713V18.7789H24.3187C24.1062 18.7789 24 18.676 24 18.4701C24 18.2643 24.1062 18.1614 24.3187 18.1614H26.1813V16.3287C26.1813 16.1096 26.2875 16 26.5 16C26.7125 16 26.8187 16.1096 26.8187 16.3287V18.1614H28.6813C28.8938 18.1614 29 18.2643 29 18.4701C29 18.676 28.8938 18.7789 28.6813 18.7789H26.8187V20.6713C26.8187 20.8904 26.7125 21 26.5 21Z" />
</svg>
